<svg width="126" height="44" viewBox="0 0 126 44" fill="none" xmlns="http://www.w3.org/2000/svg">
<g clip-path="url(#clip0_1473_886)">
<path d="M38.9133 10.7803H25.3133C22.4461 10.7803 20.1133 13.1131 20.1133 15.9803V29.5802C20.1133 32.4475 22.4461 34.7803 25.3133 34.7803H38.9132C41.7805 34.7803 44.1133 32.4475 44.1133 29.5803V15.9803C44.1133 13.1131 41.7805 10.7803 38.9133 10.7803ZM43.3133 29.5803C43.3133 32.0063 41.3393 33.9803 38.9132 33.9803H25.3133C22.8872 33.9803 20.9132 32.0063 20.9132 29.5803V15.9803C20.9132 13.5542 22.8872 11.5802 25.3133 11.5802H38.9132C41.3393 11.5802 43.3133 13.5542 43.3133 15.9803V29.5803Z" fill="#1A1A1A"/>
<path d="M26.5133 26.7803C26.2925 26.7803 26.1133 26.9591 26.1133 27.1803C26.1133 27.4015 26.2925 27.5802 26.5133 27.5802C26.734 27.5802 26.9132 27.4015 26.9132 27.1803C26.9132 26.9591 26.7341 26.7803 26.5133 26.7803Z" fill="#1A1A1A"/>
<path d="M26.5133 18.7803C26.2925 18.7803 26.1133 18.9591 26.1133 19.1803V25.5802C26.1133 25.8014 26.2925 25.9802 26.5133 25.9802C26.734 25.9802 26.9132 25.8014 26.9132 25.5802V19.1803C26.9133 18.9591 26.7341 18.7803 26.5133 18.7803Z" fill="#1A1A1A"/>
<path d="M33.3133 22.3799H28.5133C28.2925 22.3799 28.1133 22.5587 28.1133 22.7799C28.1133 23.0011 28.2925 23.1799 28.5133 23.1799H33.3133C33.534 23.1799 33.7132 23.0011 33.7132 22.7799C33.7132 22.5587 33.534 22.3799 33.3133 22.3799Z" fill="#1A1A1A"/>
<path d="M33.3133 23.9805H28.5133C28.2925 23.9805 28.1133 24.1592 28.1133 24.3805C28.1133 24.6017 28.2925 24.7804 28.5133 24.7804H33.3133C33.534 24.7804 33.7132 24.6017 33.7132 24.3805C33.7132 24.1592 33.534 23.9805 33.3133 23.9805Z" fill="#1A1A1A"/>
<path d="M39.7117 22.3799H34.9117C34.6909 22.3799 34.5117 22.5587 34.5117 22.7799C34.5117 23.0011 34.6909 23.1799 34.9117 23.1799H39.7117C39.9325 23.1799 40.1117 23.0011 40.1117 22.7799C40.1117 22.5587 39.9325 22.3799 39.7117 22.3799Z" fill="#1A1A1A"/>
<path d="M39.7117 23.9805H34.9117C34.6909 23.9805 34.5117 24.1592 34.5117 24.3805C34.5117 24.6017 34.6909 24.7804 34.9117 24.7804H39.7117C39.9325 24.7804 40.1117 24.6017 40.1117 24.3805C40.1117 24.1592 39.9325 23.9805 39.7117 23.9805Z" fill="#1A1A1A"/>
</g>
<path d="M52.6573 28.7803H51.5053V17.3243H52.6733L58.9773 26.8603V17.3243H60.1133V28.7803H58.9773L52.6573 19.2443V28.7803ZM62.1275 24.9083C62.1275 22.5403 63.7915 20.8283 66.0635 20.8283C68.3355 20.8283 69.9995 22.5403 69.9995 24.9083C69.9995 27.2603 68.3355 28.9723 66.0635 28.9723C63.7915 28.9723 62.1275 27.2603 62.1275 24.9083ZM63.2475 24.8923C63.2475 26.7163 64.3995 27.9803 66.0635 27.9803C67.7115 27.9803 68.8795 26.7163 68.8795 24.8923C68.8795 23.1003 67.7115 21.8203 66.0635 21.8203C64.3995 21.8203 63.2475 23.1003 63.2475 24.8923ZM71.2213 24.9243C71.2213 22.4923 72.7093 20.8283 74.9653 20.8283C76.7573 20.8283 78.0693 21.8683 78.3733 23.4683H77.2693C76.9813 22.3963 76.0533 21.8043 74.9813 21.8043C73.4133 21.8043 72.3093 23.0043 72.3093 24.9083C72.3093 26.7483 73.3333 27.9803 74.9013 27.9803C76.0533 27.9803 76.9813 27.3403 77.2853 26.3483H78.4053C78.0373 27.9323 76.6613 28.9723 74.9013 28.9723C72.7093 28.9723 71.2213 27.3563 71.2213 24.9243ZM79.5338 24.9083C79.5338 22.5403 81.1978 20.8283 83.4698 20.8283C85.7418 20.8283 87.4058 22.5403 87.4058 24.9083C87.4058 27.2603 85.7418 28.9723 83.4698 28.9723C81.1978 28.9723 79.5338 27.2603 79.5338 24.9083ZM80.6538 24.8923C80.6538 26.7163 81.8058 27.9803 83.4698 27.9803C85.1178 27.9803 86.2858 26.7163 86.2858 24.8923C86.2858 23.1003 85.1178 21.8203 83.4698 21.8203C81.8058 21.8203 80.6538 23.1003 80.6538 24.8923ZM92.2115 28.9723C89.9555 28.9723 88.6275 27.2443 88.6275 24.9243C88.6275 22.5883 89.9555 20.8283 92.2595 20.8283C93.5395 20.8283 94.5635 21.3883 95.1075 22.5083V17.1163H96.2115V28.7803H95.2515L95.1395 27.1963C94.5955 28.3963 93.5075 28.9723 92.2115 28.9723ZM92.4035 27.9643C94.0995 27.9643 95.0915 26.6843 95.0915 24.8923C95.0915 23.1163 94.0995 21.8203 92.4035 21.8203C90.7235 21.8203 89.7475 23.1163 89.7475 24.8923C89.7475 26.6843 90.7235 27.9643 92.4035 27.9643ZM101.763 28.9723C99.4913 28.9723 97.9713 27.3403 97.9713 24.9083C97.9713 22.4923 99.4753 20.8283 101.683 20.8283C103.779 20.8283 105.203 22.3163 105.203 24.5083V25.0523H99.0433C99.1233 26.9403 100.115 28.0283 101.779 28.0283C103.043 28.0283 103.859 27.4843 104.147 26.4603H105.203C104.787 28.0923 103.587 28.9723 101.763 28.9723ZM101.683 21.7723C100.227 21.7723 99.2673 22.7323 99.0753 24.2523H104.099C104.099 22.7643 103.139 21.7723 101.683 21.7723Z" fill="#1A1A1A"/>
<rect x="0.613281" y="1.28027" width="124.73" height="42.19" rx="21.095" stroke="#1A1A1A"/>
<defs>
<clipPath id="clip0_1473_886">
<rect width="24" height="24" fill="white" transform="translate(20.1133 10.7803)"/>
</clipPath>
</defs>
</svg>
