<svg width="209" height="51" viewBox="0 0 209 51" fill="none" xmlns="http://www.w3.org/2000/svg">
<path d="M32.8916 30.8893C34.2448 29.2095 35.1665 27.2241 35.5764 25.1063C35.9863 22.9885 35.8719 20.8026 35.2431 18.7392C34.6144 16.6758 33.4904 14.7975 31.9692 13.2682C30.448 11.7388 28.5758 10.6048 26.5158 9.96498C24.4558 9.32519 22.2705 9.19905 20.1506 9.59757C18.0306 9.99608 16.0404 10.9072 14.3533 12.2513C12.6662 13.5955 11.3336 15.332 10.4716 17.3094C9.60966 19.2867 9.24449 21.4449 9.40796 23.5958L15.1049 23.1628C15.012 21.9412 15.2194 20.7155 15.709 19.5924C16.1985 18.4694 16.9554 17.4832 17.9136 16.7198C18.8717 15.9563 20.0021 15.4389 21.2061 15.2126C22.4101 14.9862 23.6512 15.0579 24.8212 15.4212C25.9912 15.7846 27.0545 16.4287 27.9185 17.2973C28.7824 18.1659 29.4208 19.2326 29.7779 20.4045C30.135 21.5764 30.2 22.8179 29.9672 24.0207C29.7344 25.2235 29.2109 26.3511 28.4423 27.3051L32.8916 30.8893Z" fill="white"/>
<path d="M24.3062 17.2814C22.4382 18.3599 20.8623 19.8791 19.716 21.7064C18.5697 23.5337 17.8879 25.6137 17.7299 27.765C17.5719 29.9163 17.9426 32.0735 18.8096 34.0487C19.6767 36.0238 21.0137 37.7569 22.7042 39.0968C24.3947 40.4366 26.3873 41.3426 28.5083 41.7357C30.6292 42.1288 32.8141 41.9971 34.8725 41.352C36.9309 40.707 38.8002 39.5682 40.3175 38.0349C41.8348 36.5017 42.9539 34.6205 43.5774 32.5555L38.1079 30.9042C37.7538 32.077 37.1182 33.1454 36.2565 34.0162C35.3947 34.887 34.333 35.5338 33.164 35.9001C31.995 36.2665 30.754 36.3413 29.5494 36.118C28.3448 35.8948 27.2132 35.3802 26.253 34.6193C25.2929 33.8583 24.5336 32.874 24.0411 31.7522C23.5487 30.6304 23.3382 29.4052 23.4279 28.1834C23.5176 26.9616 23.9049 25.7803 24.5559 24.7425C25.2069 23.7046 26.1019 22.8418 27.1629 22.2293L24.3062 17.2814Z" fill="white"/>
<path d="M53.8058 24.1281C55.1616 24.1281 56.1919 24.5069 56.8964 25.2646C57.6142 26.0223 57.9731 27.1257 57.9731 28.5746V33.4199C57.9598 33.7788 57.787 33.9649 57.4547 33.9782C57.1357 33.9649 56.9695 33.7788 56.9562 33.4199V28.6543C56.9562 26.2749 55.8396 25.0852 53.6064 25.0852C52.503 25.0852 51.6191 25.4441 50.9544 26.1619C50.303 26.8797 49.9774 27.8501 49.9774 29.0731V33.4199C49.9774 33.7655 49.8046 33.9516 49.4589 33.9782C49.1399 33.9649 48.9737 33.7788 48.9604 33.4199V24.806C48.9737 24.4471 49.1399 24.261 49.4589 24.2477C49.8046 24.2743 49.9774 24.4604 49.9774 24.806V26.1021H50.0172C50.1901 25.7963 50.4027 25.5172 50.6553 25.2646C51.4396 24.5069 52.4897 24.1281 53.8058 24.1281Z" fill="white"/>
<path d="M59.9705 29.113C59.9705 28.3287 60.1234 27.5776 60.4291 26.8598C60.7349 26.1021 61.3065 25.4441 62.1439 24.8858C62.9814 24.3275 63.9252 24.0749 64.9753 24.1281C66.4642 24.1281 67.6605 24.5933 68.5644 25.5238C68.8835 25.8562 69.1427 26.1818 69.3421 26.5009C69.5415 26.8066 69.6811 27.1456 69.7608 27.5178C69.8406 27.89 69.8871 28.1426 69.9004 28.2755C69.9137 28.4084 69.9336 28.6876 69.9602 29.113C69.9602 29.8707 69.8073 30.6284 69.5016 31.3861C69.2092 32.1305 68.6376 32.7818 67.7868 33.3401C66.9361 33.8852 65.9989 34.1377 64.9753 34.0978C63.4865 34.0978 62.2835 33.6392 61.3663 32.722C60.9542 32.2833 60.6418 31.8247 60.4291 31.3462C60.2164 30.8676 60.0901 30.4954 60.0503 30.2296C60.0104 29.9504 59.9838 29.5782 59.9705 29.113ZM62.104 26.2018C61.3729 26.9462 61.0074 27.9166 61.0074 29.113C61.0074 30.3093 61.3729 31.2797 62.104 32.0241C62.8352 32.7685 63.7923 33.1407 64.9753 33.1407C66.1451 33.1407 67.0956 32.7685 67.8267 32.0241C68.5578 31.2797 68.9234 30.3093 68.9234 29.113C68.9234 27.9166 68.5578 26.9462 67.8267 26.2018C67.0956 25.4574 66.1451 25.0852 64.9753 25.0852C63.7923 25.0852 62.8352 25.4574 62.104 26.2018Z" fill="white"/>
<path d="M80.7838 31.9843C80.7838 32.0906 80.7506 32.1969 80.6841 32.3033C80.4581 32.609 80.2122 32.8682 79.9464 33.0809C79.0424 33.7589 77.979 34.0978 76.756 34.0978C75.2672 34.0978 74.0642 33.6392 73.147 32.722C72.7349 32.2833 72.4225 31.8247 72.2098 31.3462C71.9971 30.8676 71.8708 30.4954 71.831 30.2296C71.7911 29.9504 71.7645 29.5782 71.7512 29.113C71.7512 28.3287 71.9041 27.5776 72.2098 26.8598C72.5155 26.1021 73.0871 25.4441 73.9246 24.8858C74.7621 24.3275 75.7059 24.0749 76.756 24.1281C77.0352 24.1414 77.301 24.168 77.5536 24.2078C77.8195 24.2344 78.0388 24.2676 78.2116 24.3075C78.3977 24.3474 78.5838 24.4139 78.7699 24.5069C78.9693 24.5867 79.1155 24.6531 79.2086 24.7063C79.3149 24.7462 79.4479 24.826 79.6074 24.9456C79.7669 25.0519 79.8732 25.1317 79.9264 25.1849C79.9796 25.2247 80.0793 25.3112 80.2255 25.4441C80.3717 25.577 80.4581 25.6568 80.4847 25.6834C80.5778 25.7764 80.6243 25.896 80.6243 26.0423C80.5977 26.3347 80.4382 26.4942 80.1457 26.5208C79.9995 26.5208 79.8666 26.461 79.747 26.3414C78.9893 25.5039 77.9923 25.0852 76.756 25.0852C75.5729 25.0852 74.6158 25.4574 73.8847 26.2018C73.1536 26.9462 72.788 27.9166 72.788 29.113C72.788 30.3093 73.1536 31.2797 73.8847 32.0241C74.6158 32.7685 75.5729 33.1407 76.756 33.1407C78.072 33.1407 79.1222 32.6489 79.9065 31.6652C79.9596 31.5722 80.0926 31.5124 80.3053 31.4858C80.5977 31.4991 80.7572 31.6652 80.7838 31.9843Z" fill="white"/>
<path d="M82.4025 29.113C82.4025 28.3287 82.5554 27.5776 82.8611 26.8598C83.1668 26.1021 83.7384 25.4441 84.5759 24.8858C85.4134 24.3275 86.3572 24.0749 87.4073 24.1281C88.8961 24.1281 90.0925 24.5933 90.9964 25.5238C91.3155 25.8562 91.5747 26.1818 91.7741 26.5009C91.9735 26.8066 92.1131 27.1456 92.1928 27.5178C92.2726 27.89 92.3191 28.1426 92.3324 28.2755C92.3457 28.4084 92.3656 28.6876 92.3922 29.113C92.3922 29.8707 92.2393 30.6284 91.9336 31.3861C91.6412 32.1305 91.0696 32.7818 90.2188 33.3401C89.368 33.8852 88.4309 34.1377 87.4073 34.0978C85.9185 34.0978 84.7155 33.6392 83.7983 32.722C83.3862 32.2833 83.0738 31.8247 82.8611 31.3462C82.6484 30.8676 82.5221 30.4954 82.4823 30.2296C82.4424 29.9504 82.4158 29.5782 82.4025 29.113ZM84.536 26.2018C83.8049 26.9462 83.4394 27.9166 83.4394 29.113C83.4394 30.3093 83.8049 31.2797 84.536 32.0241C85.2671 32.7685 86.2242 33.1407 87.4073 33.1407C88.5771 33.1407 89.5276 32.7685 90.2587 32.0241C90.9898 31.2797 91.3554 30.3093 91.3554 29.113C91.3554 27.9166 90.9898 26.9462 90.2587 26.2018C89.5276 25.4574 88.5771 25.0852 87.4073 25.0852C86.2242 25.0852 85.2671 25.4574 84.536 26.2018Z" fill="white"/>
<path d="M103.635 19.7812C103.98 19.8078 104.153 20.0006 104.153 20.3595V33.4199C104.153 33.7655 103.98 33.9516 103.635 33.9782C103.315 33.9649 103.149 33.7788 103.136 33.4199V32.0241H103.096C102.91 32.3299 102.671 32.6223 102.378 32.9015C102.139 33.1407 101.747 33.4066 101.202 33.6991C100.67 33.9649 99.9457 34.0978 99.0285 34.0978C97.6061 34.0978 96.4364 33.6392 95.5191 32.722C95.1203 32.2833 94.8146 31.8181 94.6019 31.3262C94.4025 30.8344 94.2895 30.4755 94.2629 30.2495C94.2364 30.0102 94.2098 29.6314 94.1832 29.113C94.1832 28.3818 94.3294 27.6308 94.6219 26.8598C94.901 26.1021 95.4527 25.4507 96.2768 24.9057C97.101 24.3474 98.0182 24.0882 99.0285 24.1281C99.959 24.1281 100.683 24.2676 101.202 24.5468C102.066 24.9988 102.697 25.5504 103.096 26.2018H103.136V20.3595C103.149 19.9873 103.315 19.7945 103.635 19.7812ZM96.3167 32.0241C97.0478 32.7685 97.9983 33.1407 99.1681 33.1407C100.338 33.1407 101.288 32.7685 102.019 32.0241C102.764 31.2797 103.136 30.3093 103.136 29.113C103.136 27.9166 102.764 26.9462 102.019 26.2018C101.288 25.4574 100.338 25.0852 99.1681 25.0852C97.9983 25.0852 97.0478 25.4574 96.3167 26.2018C95.5856 26.9462 95.22 27.9166 95.22 29.113C95.22 30.3093 95.5856 31.2797 96.3167 32.0241Z" fill="white"/>
<path d="M116.321 28.8737C116.308 29.2459 116.102 29.4453 115.703 29.4719H107.488C107.568 30.5752 107.967 31.4658 108.684 32.1438C109.415 32.8084 110.366 33.1407 111.536 33.1407C112.905 33.1407 113.982 32.6489 114.766 31.6652C114.859 31.5323 114.985 31.4658 115.145 31.4658C115.49 31.4924 115.663 31.6719 115.663 32.0042C115.663 32.1371 115.617 32.2501 115.524 32.3432C114.527 33.513 113.197 34.0978 111.536 34.0978C110.007 34.0978 108.771 33.6392 107.827 32.722C107.415 32.2833 107.103 31.8247 106.89 31.3462C106.677 30.8676 106.551 30.4954 106.511 30.2296C106.471 29.9504 106.444 29.5782 106.431 29.113C106.431 28.3287 106.584 27.5776 106.89 26.8598C107.196 26.1021 107.767 25.4441 108.605 24.8858C109.442 24.3275 110.386 24.0749 111.436 24.1281C112.858 24.1281 114.028 24.5734 114.945 25.464C115.863 26.3547 116.321 27.4912 116.321 28.8737ZM111.436 25.0852C110.346 25.0852 109.449 25.3976 108.744 26.0223C108.053 26.6471 107.641 27.4846 107.508 28.5347H115.344C115.211 27.4846 114.793 26.6471 114.088 26.0223C113.383 25.3976 112.499 25.0852 111.436 25.0852Z" fill="white"/>
<path d="M124.161 20.2598C126.076 20.2598 127.538 20.7849 128.548 21.835C129.558 22.8852 130.07 24.4205 130.083 26.4411V33.38C130.057 33.7655 129.871 33.9649 129.525 33.9782C129.179 33.9516 129 33.7522 128.987 33.38V29.5317H119.276V33.38C119.25 33.7522 119.07 33.9516 118.738 33.9782C118.405 33.9516 118.226 33.7522 118.199 33.38V26.4411C118.213 24.4205 118.725 22.8852 119.735 21.835C120.758 20.7849 122.234 20.2598 124.161 20.2598ZM128.987 28.5347V26.4211C128.987 25.5571 128.854 24.7263 128.588 23.9287C128.349 23.1311 127.83 22.4864 127.033 21.9945C126.248 21.5027 125.285 21.2568 124.141 21.2568C122.56 21.2568 121.357 21.6888 120.532 22.5528C120.12 22.9649 119.834 23.4235 119.675 23.9287C119.409 24.7263 119.276 25.5571 119.276 26.4211V28.5347H128.987Z" fill="white"/>
<path d="M141.206 31.9843C141.206 32.0906 141.173 32.1969 141.106 32.3033C140.88 32.609 140.634 32.8682 140.369 33.0809C139.465 33.7589 138.401 34.0978 137.178 34.0978C135.689 34.0978 134.486 33.6392 133.569 32.722C133.157 32.2833 132.845 31.8247 132.632 31.3462C132.419 30.8676 132.293 30.4954 132.253 30.2296C132.213 29.9504 132.187 29.5782 132.173 29.113C132.173 28.3287 132.326 27.5776 132.632 26.8598C132.938 26.1021 133.509 25.4441 134.347 24.8858C135.184 24.3275 136.128 24.0749 137.178 24.1281C137.457 24.1414 137.723 24.168 137.976 24.2078C138.242 24.2344 138.461 24.2676 138.634 24.3075C138.82 24.3474 139.006 24.4139 139.192 24.5069C139.392 24.5867 139.538 24.6531 139.631 24.7063C139.737 24.7462 139.87 24.826 140.03 24.9456C140.189 25.0519 140.296 25.1317 140.349 25.1849C140.402 25.2247 140.502 25.3112 140.648 25.4441C140.794 25.577 140.88 25.6568 140.907 25.6834C141 25.7764 141.047 25.896 141.047 26.0423C141.02 26.3347 140.86 26.4942 140.568 26.5208C140.422 26.5208 140.289 26.461 140.169 26.3414C139.412 25.5039 138.415 25.0852 137.178 25.0852C135.995 25.0852 135.038 25.4574 134.307 26.2018C133.576 26.9462 133.21 27.9166 133.21 29.113C133.21 30.3093 133.576 31.2797 134.307 32.0241C135.038 32.7685 135.995 33.1407 137.178 33.1407C138.494 33.1407 139.544 32.6489 140.329 31.6652C140.382 31.5722 140.515 31.5124 140.728 31.4858C141.02 31.4991 141.179 31.6652 141.206 31.9843Z" fill="white"/>
<path d="M152.276 24.2477C152.622 24.2743 152.795 24.467 152.795 24.826V33.4199C152.795 33.7655 152.622 33.9516 152.276 33.9782C151.957 33.9649 151.791 33.7788 151.778 33.4199V32.0241H151.738C151.552 32.3299 151.312 32.6223 151.02 32.9015C150.781 33.1407 150.389 33.4066 149.843 33.6991C149.312 33.9649 148.587 34.0978 147.67 34.0978C146.248 34.0978 145.078 33.6392 144.161 32.722C143.762 32.2833 143.456 31.8181 143.244 31.3262C143.044 30.8344 142.931 30.4755 142.905 30.2495C142.878 30.0102 142.851 29.6314 142.825 29.113C142.825 28.3818 142.971 27.6308 143.263 26.8598C143.543 26.1021 144.094 25.4507 144.918 24.9057C145.743 24.3474 146.66 24.0882 147.67 24.1281C148.601 24.1281 149.325 24.2676 149.843 24.5468C150.708 24.9988 151.339 25.5504 151.738 26.2018H151.778V24.826C151.791 24.4538 151.957 24.261 152.276 24.2477ZM144.958 32.0241C145.689 32.7685 146.64 33.1407 147.81 33.1407C148.979 33.1407 149.93 32.7685 150.661 32.0241C151.405 31.2797 151.778 30.3093 151.778 29.113C151.778 27.9166 151.405 26.9462 150.661 26.2018C149.93 25.4574 148.979 25.0852 147.81 25.0852C146.64 25.0852 145.689 25.4574 144.958 26.2018C144.227 26.9462 143.862 27.9166 143.862 29.113C143.862 30.3093 144.227 31.2797 144.958 32.0241Z" fill="white"/>
<path d="M164.524 19.7812C164.87 19.8078 165.043 20.0006 165.043 20.3595V33.4199C165.043 33.7655 164.87 33.9516 164.524 33.9782C164.205 33.9649 164.039 33.7788 164.026 33.4199V32.0241H163.986C163.8 32.3299 163.56 32.6223 163.268 32.9015C163.029 33.1407 162.637 33.4066 162.092 33.6991C161.56 33.9649 160.835 34.0978 159.918 34.0978C158.496 34.0978 157.326 33.6392 156.409 32.722C156.01 32.2833 155.704 31.8181 155.492 31.3262C155.292 30.8344 155.179 30.4755 155.153 30.2495C155.126 30.0102 155.099 29.6314 155.073 29.113C155.073 28.3818 155.219 27.6308 155.511 26.8598C155.791 26.1021 156.342 25.4507 157.166 24.9057C157.991 24.3474 158.908 24.0882 159.918 24.1281C160.849 24.1281 161.573 24.2676 162.092 24.5468C162.956 24.9988 163.587 25.5504 163.986 26.2018H164.026V20.3595C164.039 19.9873 164.205 19.7945 164.524 19.7812ZM157.206 32.0241C157.937 32.7685 158.888 33.1407 160.058 33.1407C161.227 33.1407 162.178 32.7685 162.909 32.0241C163.653 31.2797 164.026 30.3093 164.026 29.113C164.026 27.9166 163.653 26.9462 162.909 26.2018C162.178 25.4574 161.227 25.0852 160.058 25.0852C158.888 25.0852 157.937 25.4574 157.206 26.2018C156.475 26.9462 156.11 27.9166 156.11 29.113C156.11 30.3093 156.475 31.2797 157.206 32.0241Z" fill="white"/>
<path d="M177.211 28.8737C177.198 29.2459 176.991 29.4453 176.593 29.4719H168.378C168.457 30.5752 168.856 31.4658 169.574 32.1438C170.305 32.8084 171.256 33.1407 172.425 33.1407C173.795 33.1407 174.871 32.6489 175.656 31.6652C175.749 31.5323 175.875 31.4658 176.034 31.4658C176.38 31.4924 176.553 31.6719 176.553 32.0042C176.553 32.1371 176.506 32.2501 176.413 32.3432C175.416 33.513 174.087 34.0978 172.425 34.0978C170.897 34.0978 169.66 33.6392 168.717 32.722C168.304 32.2833 167.992 31.8247 167.779 31.3462C167.567 30.8676 167.44 30.4954 167.401 30.2296C167.361 29.9504 167.334 29.5782 167.321 29.113C167.321 28.3287 167.474 27.5776 167.779 26.8598C168.085 26.1021 168.657 25.4441 169.494 24.8858C170.332 24.3275 171.275 24.0749 172.326 24.1281C173.748 24.1281 174.918 24.5734 175.835 25.464C176.752 26.3547 177.211 27.4912 177.211 28.8737ZM172.326 25.0852C171.236 25.0852 170.338 25.3976 169.634 26.0223C168.943 26.6471 168.53 27.4846 168.398 28.5347H176.234C176.101 27.4846 175.682 26.6471 174.978 26.0223C174.273 25.3976 173.389 25.0852 172.326 25.0852Z" fill="white"/>
<path d="M190.215 24.1281C191.412 24.1281 192.316 24.4936 192.927 25.2247C193.539 25.9426 193.844 26.9994 193.844 28.3951V33.4199C193.844 33.7788 193.678 33.9649 193.346 33.9782C193 33.9516 192.827 33.7655 192.827 33.4199V28.4948C192.827 26.2217 191.91 25.0852 190.076 25.0852C189.159 25.0852 188.427 25.4241 187.882 26.1021C187.337 26.78 187.065 27.7039 187.065 28.8737V33.4199C187.065 33.7788 186.899 33.9649 186.566 33.9782C186.221 33.9516 186.048 33.7655 186.048 33.4199V28.4948C186.048 26.2217 185.131 25.0852 183.296 25.0852C182.366 25.0852 181.628 25.4241 181.083 26.1021C180.551 26.78 180.285 27.7039 180.285 28.8737V33.4199C180.285 33.7655 180.113 33.9516 179.767 33.9782C179.448 33.9649 179.282 33.7788 179.268 33.4199V24.826C179.282 24.4538 179.448 24.261 179.767 24.2477C180.113 24.2743 180.285 24.467 180.285 24.826V25.8628H180.325C180.99 24.7063 182.04 24.1281 183.476 24.1281C185.058 24.1281 186.128 24.8127 186.686 26.1818H186.726C187.404 24.8127 188.567 24.1281 190.215 24.1281Z" fill="white"/>
<path d="M204.501 24.2477C204.834 24.261 205 24.4538 205 24.826V33.1607C205 33.8785 204.867 34.5963 204.601 35.3142C204.348 36.032 203.837 36.6235 203.066 37.0888C202.295 37.5673 201.384 37.8066 200.334 37.8066C198.46 37.8066 197.13 37.2616 196.346 36.1716C196.28 36.0785 196.246 35.9722 196.246 35.8525C196.26 35.5335 196.426 35.3673 196.745 35.354C196.878 35.3673 196.991 35.4139 197.084 35.4936C197.935 36.3975 199.011 36.8495 200.314 36.8495C201.457 36.8495 202.355 36.5238 203.006 35.8725C203.657 35.2211 203.983 34.3238 203.983 33.1806V32.0042H203.943C203.77 32.3099 203.551 32.5957 203.285 32.8616C202.527 33.6193 201.497 33.9981 200.194 33.9981C198.852 33.9981 197.828 33.6193 197.124 32.8616C196.419 32.1039 196.067 31.0006 196.067 29.5516V24.826C196.067 24.467 196.24 24.2743 196.585 24.2477C196.918 24.261 197.084 24.4538 197.084 24.826V29.4719C197.084 31.8513 198.187 33.0411 200.394 33.0411C201.484 33.0411 202.355 32.6821 203.006 31.9643C203.657 31.2465 203.983 30.2761 203.983 29.0531V24.826C203.983 24.467 204.156 24.2743 204.501 24.2477Z" fill="white"/>
<path fill-rule="evenodd" clip-rule="evenodd" d="M116.106 10.8627C116.353 10.7397 116.652 10.8397 116.775 11.086L120.329 18.2024C120.452 18.4487 120.352 18.7481 120.105 18.8711C119.859 18.9941 119.56 18.8941 119.437 18.6478L115.883 11.5314C115.76 11.2851 115.86 10.9857 116.106 10.8627ZM111.908 18.387C111.982 18.1219 112.257 17.9672 112.523 18.0415L117.41 19.411C117.675 19.4852 117.83 19.7604 117.756 20.0255C117.681 20.2906 117.406 20.4453 117.141 20.371L112.254 19.0015C111.988 18.9272 111.834 18.6521 111.908 18.387ZM124.254 11.4451C124.519 11.5194 124.674 11.7945 124.6 12.0596L123.23 16.9471C123.156 17.2122 122.881 17.3669 122.616 17.2926C122.351 17.2184 122.196 16.9432 122.27 16.6781L123.64 11.7906C123.714 11.5255 123.989 11.3708 124.254 11.4451Z" fill="white"/>
</svg>
