<svg xmlns="http://www.w3.org/2000/svg" width="201" height="44" viewBox="0 0 201 44" fill="none"><path d="M28.8916 27.4909C30.2448 25.811 31.1665 23.8257 31.5764 21.7079C31.9863 19.5901 31.8719 17.4042 31.2431 15.3408C30.6144 13.2774 29.4904 11.3991 27.9692 9.86973C26.448 8.34036 24.5758 7.20634 22.5158 6.56654C20.4558 5.92675 18.2705 5.80061 16.1506 6.19913C14.0306 6.59764 12.0404 7.50871 10.3533 8.85289C8.66624 10.1971 7.33362 11.9336 6.47164 13.9109C5.60966 15.8883 5.24449 18.0465 5.40796 20.1974L11.1049 19.7644C11.012 18.5428 11.2194 17.317 11.709 16.194C12.1985 15.071 12.9554 14.0847 13.9136 13.3213C14.8717 12.5579 16.0021 12.0405 17.2061 11.8141C18.4101 11.5878 19.6512 11.6594 20.8212 12.0228C21.9912 12.3862 23.0545 13.0302 23.9185 13.8988C24.7824 14.7674 25.4208 15.8342 25.7779 17.0061C26.135 18.178 26.2 19.4195 25.9672 20.6223C25.7344 21.8251 25.2109 22.9526 24.4423 23.9067L28.8916 27.4909Z" fill="#1A1A1A"></path><path d="M20.3065 13.883C18.4384 14.9615 16.8625 16.4806 15.7163 18.308C14.57 20.1353 13.8881 22.2152 13.7301 24.3665C13.5722 26.5178 13.9429 28.6751 14.8099 30.6502C15.6769 32.6254 17.014 34.3585 18.7045 35.6983C20.395 37.0382 22.3875 37.9442 24.5085 38.3373C26.6295 38.7304 28.8144 38.5987 30.8728 37.9536C32.9311 37.3085 34.8005 36.1697 36.3177 34.6365C37.835 33.1032 38.9542 31.2221 39.5776 29.1571L34.1082 27.5057C33.7541 28.6786 33.1184 29.747 32.2567 30.6178C31.395 31.4886 30.3333 32.1353 29.1642 32.5017C27.9952 32.8681 26.7543 32.9429 25.5497 32.7196C24.3451 32.4964 23.2134 31.9818 22.2533 31.2208C21.2932 30.4599 20.5338 29.4756 20.0414 28.3538C19.549 27.232 19.3384 26.0068 19.4281 24.785C19.5179 23.5631 19.9051 22.3818 20.5561 21.344C21.2072 20.3062 22.1022 19.4434 23.1632 18.8309L20.3065 13.883Z" fill="#1A1A1A"></path><path d="M49.8058 20.7296C51.1616 20.7296 52.1919 21.1085 52.8964 21.8662C53.6142 22.6239 53.9731 23.7272 53.9731 25.1762V30.0215C53.9598 30.3804 53.787 30.5665 53.4547 30.5798C53.1357 30.5665 52.9695 30.3804 52.9562 30.0215V25.2559C52.9562 22.8765 51.8396 21.6867 49.6064 21.6867C48.503 21.6867 47.6191 22.0456 46.9544 22.7635C46.303 23.4813 45.9774 24.4517 45.9774 25.6746V30.0215C45.9774 30.3671 45.8046 30.5532 45.4589 30.5798C45.1399 30.5665 44.9737 30.3804 44.9604 30.0215V21.4076C44.9737 21.0487 45.1399 20.8626 45.4589 20.8493C45.8046 20.8759 45.9774 21.062 45.9774 21.4076V22.7036H46.0172C46.1901 22.3979 46.4027 22.1188 46.6553 21.8662C47.4396 21.1085 48.4897 20.7296 49.8058 20.7296Z" fill="#1A1A1A"></path><path d="M55.9705 25.7145C55.9705 24.9302 56.1234 24.1792 56.4291 23.4614C56.7349 22.7036 57.3065 22.0456 58.1439 21.4873C58.9814 20.929 59.9252 20.6765 60.9753 20.7296C62.4642 20.7296 63.6605 21.1949 64.5644 22.1254C64.8835 22.4577 65.1427 22.7834 65.3421 23.1024C65.5415 23.4082 65.6811 23.7472 65.7608 24.1194C65.8406 24.4916 65.8871 24.7441 65.9004 24.8771C65.9137 25.01 65.9336 25.2891 65.9602 25.7145C65.9602 26.4722 65.8073 27.2299 65.5016 27.9876C65.2092 28.732 64.6376 29.3834 63.7868 29.9417C62.9361 30.4867 61.9989 30.7393 60.9753 30.6994C59.4865 30.6994 58.2835 30.2408 57.3663 29.3236C56.9542 28.8849 56.6418 28.4263 56.4291 27.9478C56.2164 27.4692 56.0901 27.097 56.0503 26.8311C56.0104 26.552 55.9838 26.1798 55.9705 25.7145ZM58.104 22.8033C57.3729 23.5478 57.0074 24.5181 57.0074 25.7145C57.0074 26.9109 57.3729 27.8813 58.104 28.6257C58.8352 29.3701 59.7923 29.7423 60.9753 29.7423C62.1451 29.7423 63.0956 29.3701 63.8267 28.6257C64.5578 27.8813 64.9234 26.9109 64.9234 25.7145C64.9234 24.5181 64.5578 23.5478 63.8267 22.8033C63.0956 22.0589 62.1451 21.6867 60.9753 21.6867C59.7923 21.6867 58.8352 22.0589 58.104 22.8033Z" fill="#1A1A1A"></path><path d="M76.7838 28.5858C76.7838 28.6922 76.7506 28.7985 76.6841 28.9048C76.4581 29.2106 76.2122 29.4698 75.9464 29.6825C75.0424 30.3604 73.979 30.6994 72.756 30.6994C71.2672 30.6994 70.0642 30.2408 69.147 29.3236C68.7349 28.8849 68.4225 28.4263 68.2098 27.9478C67.9971 27.4692 67.8708 27.097 67.831 26.8311C67.7911 26.552 67.7645 26.1798 67.7512 25.7145C67.7512 24.9302 67.9041 24.1792 68.2098 23.4614C68.5155 22.7036 69.0871 22.0456 69.9246 21.4873C70.7621 20.929 71.7059 20.6765 72.756 20.7296C73.0352 20.7429 73.301 20.7695 73.5536 20.8094C73.8195 20.836 74.0388 20.8692 74.2116 20.9091C74.3977 20.949 74.5838 21.0154 74.7699 21.1085C74.9693 21.1882 75.1155 21.2547 75.2086 21.3079C75.3149 21.3478 75.4479 21.4275 75.6074 21.5472C75.7669 21.6535 75.8732 21.7333 75.9264 21.7864C75.9796 21.8263 76.0793 21.9127 76.2255 22.0456C76.3717 22.1786 76.4581 22.2583 76.4847 22.2849C76.5778 22.378 76.6243 22.4976 76.6243 22.6438C76.5977 22.9363 76.4382 23.0958 76.1457 23.1224C75.9995 23.1224 75.8666 23.0626 75.747 22.9429C74.9893 22.1055 73.9923 21.6867 72.756 21.6867C71.5729 21.6867 70.6158 22.0589 69.8847 22.8033C69.1536 23.5478 68.788 24.5181 68.788 25.7145C68.788 26.9109 69.1536 27.8813 69.8847 28.6257C70.6158 29.3701 71.5729 29.7423 72.756 29.7423C74.072 29.7423 75.1222 29.2505 75.9065 28.2668C75.9596 28.1737 76.0926 28.1139 76.3053 28.0873C76.5977 28.1006 76.7572 28.2668 76.7838 28.5858Z" fill="#1A1A1A"></path><path d="M78.4025 25.7145C78.4025 24.9302 78.5554 24.1792 78.8611 23.4614C79.1668 22.7036 79.7384 22.0456 80.5759 21.4873C81.4134 20.929 82.3572 20.6765 83.4073 20.7296C84.8961 20.7296 86.0925 21.1949 86.9964 22.1254C87.3155 22.4577 87.5747 22.7834 87.7741 23.1024C87.9735 23.4082 88.1131 23.7472 88.1928 24.1194C88.2726 24.4916 88.3191 24.7441 88.3324 24.8771C88.3457 25.01 88.3656 25.2891 88.3922 25.7145C88.3922 26.4722 88.2393 27.2299 87.9336 27.9876C87.6412 28.732 87.0696 29.3834 86.2188 29.9417C85.368 30.4867 84.4309 30.7393 83.4073 30.6994C81.9185 30.6994 80.7155 30.2408 79.7983 29.3236C79.3862 28.8849 79.0738 28.4263 78.8611 27.9478C78.6484 27.4692 78.5221 27.097 78.4823 26.8311C78.4424 26.552 78.4158 26.1798 78.4025 25.7145ZM80.536 22.8033C79.8049 23.5478 79.4394 24.5181 79.4394 25.7145C79.4394 26.9109 79.8049 27.8813 80.536 28.6257C81.2671 29.3701 82.2242 29.7423 83.4073 29.7423C84.5771 29.7423 85.5276 29.3701 86.2587 28.6257C86.9898 27.8813 87.3554 26.9109 87.3554 25.7145C87.3554 24.5181 86.9898 23.5478 86.2587 22.8033C85.5276 22.0589 84.5771 21.6867 83.4073 21.6867C82.2242 21.6867 81.2671 22.0589 80.536 22.8033Z" fill="#1A1A1A"></path><path d="M99.6345 16.3828C99.9801 16.4094 100.153 16.6021 100.153 16.9611V30.0215C100.153 30.3671 99.9801 30.5532 99.6345 30.5798C99.3155 30.5665 99.1493 30.3804 99.136 30.0215V28.6257H99.0962C98.9101 28.9314 98.6708 29.2239 98.3783 29.503C98.1391 29.7423 97.7469 30.0082 97.2019 30.3006C96.6702 30.5665 95.9457 30.6994 95.0285 30.6994C93.6061 30.6994 92.4364 30.2408 91.5191 29.3236C91.1203 28.8849 90.8146 28.4197 90.6019 27.9278C90.4025 27.436 90.2895 27.0771 90.2629 26.8511C90.2364 26.6118 90.2098 26.2329 90.1832 25.7145C90.1832 24.9834 90.3294 24.2323 90.6219 23.4614C90.901 22.7036 91.4527 22.0523 92.2768 21.5073C93.101 20.949 94.0182 20.6898 95.0285 20.7296C95.959 20.7296 96.6835 20.8692 97.2019 21.1484C98.066 21.6003 98.6974 22.152 99.0962 22.8033H99.136V16.9611C99.1493 16.5889 99.3155 16.3961 99.6345 16.3828ZM92.3167 28.6257C93.0478 29.3701 93.9983 29.7423 95.1681 29.7423C96.3379 29.7423 97.2883 29.3701 98.0194 28.6257C98.7638 27.8813 99.136 26.9109 99.136 25.7145C99.136 24.5181 98.7638 23.5478 98.0194 22.8033C97.2883 22.0589 96.3379 21.6867 95.1681 21.6867C93.9983 21.6867 93.0478 22.0589 92.3167 22.8033C91.5856 23.5478 91.22 24.5181 91.22 25.7145C91.22 26.9109 91.5856 27.8813 92.3167 28.6257Z" fill="#1A1A1A"></path><path d="M112.321 25.4752C112.308 25.8475 112.102 26.0468 111.703 26.0734H103.488C103.568 27.1768 103.967 28.0674 104.684 28.7453C105.415 29.41 106.366 29.7423 107.536 29.7423C108.905 29.7423 109.982 29.2505 110.766 28.2668C110.859 28.1339 110.985 28.0674 111.145 28.0674C111.49 28.094 111.663 28.2734 111.663 28.6058C111.663 28.7387 111.617 28.8517 111.524 28.9447C110.527 30.1145 109.197 30.6994 107.536 30.6994C106.007 30.6994 104.771 30.2408 103.827 29.3236C103.415 28.8849 103.103 28.4263 102.89 27.9478C102.677 27.4692 102.551 27.097 102.511 26.8311C102.471 26.552 102.444 26.1798 102.431 25.7145C102.431 24.9302 102.584 24.1792 102.89 23.4614C103.196 22.7036 103.767 22.0456 104.605 21.4873C105.442 20.929 106.386 20.6765 107.436 20.7296C108.858 20.7296 110.028 21.175 110.945 22.0656C111.863 22.9562 112.321 24.0928 112.321 25.4752ZM107.436 21.6867C106.346 21.6867 105.449 21.9991 104.744 22.6239C104.053 23.2487 103.641 24.0861 103.508 25.1363H111.344C111.211 24.0861 110.793 23.2487 110.088 22.6239C109.383 21.9991 108.499 21.6867 107.436 21.6867Z" fill="#1A1A1A"></path><path d="M120.161 16.8614C122.076 16.8614 123.538 17.3864 124.548 18.4366C125.558 19.4867 126.07 21.0221 126.083 23.0426V29.9816C126.057 30.3671 125.871 30.5665 125.525 30.5798C125.179 30.5532 125 30.3538 124.987 29.9816V26.1333H115.276V29.9816C115.25 30.3538 115.07 30.5532 114.738 30.5798C114.405 30.5532 114.226 30.3538 114.199 29.9816V23.0426C114.213 21.0221 114.725 19.4867 115.735 18.4366C116.758 17.3864 118.234 16.8614 120.161 16.8614ZM124.987 25.1363V23.0227C124.987 22.1586 124.854 21.3278 124.588 20.5302C124.349 19.7327 123.83 19.0879 123.033 18.5961C122.248 18.1043 121.285 17.8583 120.141 17.8583C118.56 17.8583 117.357 18.2904 116.532 19.1544C116.12 19.5665 115.834 20.0251 115.675 20.5302C115.409 21.3278 115.276 22.1586 115.276 23.0227V25.1363H124.987Z" fill="#1A1A1A"></path><path d="M137.206 28.5858C137.206 28.6922 137.173 28.7985 137.106 28.9048C136.88 29.2106 136.634 29.4698 136.369 29.6825C135.465 30.3604 134.401 30.6994 133.178 30.6994C131.689 30.6994 130.486 30.2408 129.569 29.3236C129.157 28.8849 128.845 28.4263 128.632 27.9478C128.419 27.4692 128.293 27.097 128.253 26.8311C128.213 26.552 128.187 26.1798 128.173 25.7145C128.173 24.9302 128.326 24.1792 128.632 23.4614C128.938 22.7036 129.509 22.0456 130.347 21.4873C131.184 20.929 132.128 20.6765 133.178 20.7296C133.457 20.7429 133.723 20.7695 133.976 20.8094C134.242 20.836 134.461 20.8692 134.634 20.9091C134.82 20.949 135.006 21.0154 135.192 21.1085C135.392 21.1882 135.538 21.2547 135.631 21.3079C135.737 21.3478 135.87 21.4275 136.03 21.5472C136.189 21.6535 136.296 21.7333 136.349 21.7864C136.402 21.8263 136.502 21.9127 136.648 22.0456C136.794 22.1786 136.88 22.2583 136.907 22.2849C137 22.378 137.047 22.4976 137.047 22.6438C137.02 22.9363 136.86 23.0958 136.568 23.1224C136.422 23.1224 136.289 23.0626 136.169 22.9429C135.412 22.1055 134.415 21.6867 133.178 21.6867C131.995 21.6867 131.038 22.0589 130.307 22.8033C129.576 23.5478 129.21 24.5181 129.21 25.7145C129.21 26.9109 129.576 27.8813 130.307 28.6257C131.038 29.3701 131.995 29.7423 133.178 29.7423C134.494 29.7423 135.544 29.2505 136.329 28.2668C136.382 28.1737 136.515 28.1139 136.728 28.0873C137.02 28.1006 137.179 28.2668 137.206 28.5858Z" fill="#1A1A1A"></path><path d="M148.276 20.8493C148.622 20.8759 148.795 21.0686 148.795 21.4275V30.0215C148.795 30.3671 148.622 30.5532 148.276 30.5798C147.957 30.5665 147.791 30.3804 147.778 30.0215V28.6257H147.738C147.552 28.9314 147.312 29.2239 147.02 29.503C146.781 29.7423 146.389 30.0082 145.843 30.3006C145.312 30.5665 144.587 30.6994 143.67 30.6994C142.248 30.6994 141.078 30.2408 140.161 29.3236C139.762 28.8849 139.456 28.4197 139.244 27.9278C139.044 27.436 138.931 27.0771 138.905 26.8511C138.878 26.6118 138.851 26.2329 138.825 25.7145C138.825 24.9834 138.971 24.2323 139.263 23.4614C139.543 22.7036 140.094 22.0523 140.918 21.5073C141.743 20.949 142.66 20.6898 143.67 20.7296C144.601 20.7296 145.325 20.8692 145.843 21.1484C146.708 21.6003 147.339 22.152 147.738 22.8033H147.778V21.4275C147.791 21.0553 147.957 20.8626 148.276 20.8493ZM140.958 28.6257C141.689 29.3701 142.64 29.7423 143.81 29.7423C144.979 29.7423 145.93 29.3701 146.661 28.6257C147.405 27.8813 147.778 26.9109 147.778 25.7145C147.778 24.5181 147.405 23.5478 146.661 22.8033C145.93 22.0589 144.979 21.6867 143.81 21.6867C142.64 21.6867 141.689 22.0589 140.958 22.8033C140.227 23.5478 139.862 24.5181 139.862 25.7145C139.862 26.9109 140.227 27.8813 140.958 28.6257Z" fill="#1A1A1A"></path><path d="M160.524 16.3828C160.87 16.4094 161.043 16.6021 161.043 16.9611V30.0215C161.043 30.3671 160.87 30.5532 160.524 30.5798C160.205 30.5665 160.039 30.3804 160.026 30.0215V28.6257H159.986C159.8 28.9314 159.56 29.2239 159.268 29.503C159.029 29.7423 158.637 30.0082 158.092 30.3006C157.56 30.5665 156.835 30.6994 155.918 30.6994C154.496 30.6994 153.326 30.2408 152.409 29.3236C152.01 28.8849 151.704 28.4197 151.492 27.9278C151.292 27.436 151.179 27.0771 151.153 26.8511C151.126 26.6118 151.099 26.2329 151.073 25.7145C151.073 24.9834 151.219 24.2323 151.511 23.4614C151.791 22.7036 152.342 22.0523 153.166 21.5073C153.991 20.949 154.908 20.6898 155.918 20.7296C156.849 20.7296 157.573 20.8692 158.092 21.1484C158.956 21.6003 159.587 22.152 159.986 22.8033H160.026V16.9611C160.039 16.5889 160.205 16.3961 160.524 16.3828ZM153.206 28.6257C153.937 29.3701 154.888 29.7423 156.058 29.7423C157.227 29.7423 158.178 29.3701 158.909 28.6257C159.653 27.8813 160.026 26.9109 160.026 25.7145C160.026 24.5181 159.653 23.5478 158.909 22.8033C158.178 22.0589 157.227 21.6867 156.058 21.6867C154.888 21.6867 153.937 22.0589 153.206 22.8033C152.475 23.5478 152.11 24.5181 152.11 25.7145C152.11 26.9109 152.475 27.8813 153.206 28.6257Z" fill="#1A1A1A"></path><path d="M173.211 25.4752C173.198 25.8475 172.991 26.0468 172.593 26.0734H164.378C164.457 27.1768 164.856 28.0674 165.574 28.7453C166.305 29.41 167.256 29.7423 168.425 29.7423C169.795 29.7423 170.871 29.2505 171.656 28.2668C171.749 28.1339 171.875 28.0674 172.034 28.0674C172.38 28.094 172.553 28.2734 172.553 28.6058C172.553 28.7387 172.506 28.8517 172.413 28.9447C171.416 30.1145 170.087 30.6994 168.425 30.6994C166.897 30.6994 165.66 30.2408 164.717 29.3236C164.304 28.8849 163.992 28.4263 163.779 27.9478C163.567 27.4692 163.44 27.097 163.401 26.8311C163.361 26.552 163.334 26.1798 163.321 25.7145C163.321 24.9302 163.474 24.1792 163.779 23.4614C164.085 22.7036 164.657 22.0456 165.494 21.4873C166.332 20.929 167.275 20.6765 168.326 20.7296C169.748 20.7296 170.918 21.175 171.835 22.0656C172.752 22.9562 173.211 24.0928 173.211 25.4752ZM168.326 21.6867C167.236 21.6867 166.338 21.9991 165.634 22.6239C164.943 23.2487 164.53 24.0861 164.398 25.1363H172.234C172.101 24.0861 171.682 23.2487 170.978 22.6239C170.273 21.9991 169.389 21.6867 168.326 21.6867Z" fill="#1A1A1A"></path><path d="M186.215 20.7296C187.412 20.7296 188.316 21.0952 188.927 21.8263C189.539 22.5441 189.844 23.6009 189.844 24.9967V30.0215C189.844 30.3804 189.678 30.5665 189.346 30.5798C189 30.5532 188.827 30.3671 188.827 30.0215V25.0964C188.827 22.8233 187.91 21.6867 186.076 21.6867C185.159 21.6867 184.427 22.0257 183.882 22.7036C183.337 23.3816 183.065 24.3055 183.065 25.4752V30.0215C183.065 30.3804 182.899 30.5665 182.566 30.5798C182.221 30.5532 182.048 30.3671 182.048 30.0215V25.0964C182.048 22.8233 181.131 21.6867 179.296 21.6867C178.366 21.6867 177.628 22.0257 177.083 22.7036C176.551 23.3816 176.285 24.3055 176.285 25.4752V30.0215C176.285 30.3671 176.113 30.5532 175.767 30.5798C175.448 30.5665 175.282 30.3804 175.268 30.0215V21.4275C175.282 21.0553 175.448 20.8626 175.767 20.8493C176.113 20.8759 176.285 21.0686 176.285 21.4275V22.4644H176.325C176.99 21.3079 178.04 20.7296 179.476 20.7296C181.058 20.7296 182.128 21.4142 182.686 22.7834H182.726C183.404 21.4142 184.567 20.7296 186.215 20.7296Z" fill="#1A1A1A"></path><path d="M200.501 20.8493C200.834 20.8626 201 21.0553 201 21.4275V29.7622C201 30.4801 200.867 31.1979 200.601 31.9157C200.348 32.6335 199.837 33.2251 199.066 33.6903C198.295 34.1689 197.384 34.4082 196.334 34.4082C194.46 34.4082 193.13 33.8631 192.346 32.7731C192.28 32.6801 192.246 32.5737 192.246 32.4541C192.26 32.1351 192.426 31.9689 192.745 31.9556C192.878 31.9689 192.991 32.0154 193.084 32.0952C193.935 32.9991 195.011 33.4511 196.314 33.4511C197.457 33.4511 198.355 33.1254 199.006 32.474C199.657 31.8227 199.983 30.9254 199.983 29.7822V28.6058H199.943C199.77 28.9115 199.551 29.1973 199.285 29.4632C198.527 30.2209 197.497 30.5997 196.194 30.5997C194.852 30.5997 193.828 30.2209 193.124 29.4632C192.419 28.7055 192.067 27.6021 192.067 26.1532V21.4275C192.067 21.0686 192.24 20.8759 192.585 20.8493C192.918 20.8626 193.084 21.0553 193.084 21.4275V26.0734C193.084 28.4529 194.187 29.6426 196.394 29.6426C197.484 29.6426 198.355 29.2837 199.006 28.5659C199.657 27.8481 199.983 26.8777 199.983 25.6547V21.4275C199.983 21.0686 200.156 20.8759 200.501 20.8493Z" fill="#1A1A1A"></path><path fill-rule="evenodd" clip-rule="evenodd" d="M112.106 7.46427C112.352 7.34128 112.652 7.44124 112.775 7.68755L116.328 14.804C116.451 15.0503 116.351 15.3496 116.105 15.4726C115.859 15.5956 115.559 15.4957 115.436 15.2494L111.883 8.13295C111.76 7.88665 111.86 7.58727 112.106 7.46427ZM107.908 14.9886C107.982 14.7235 108.257 14.5688 108.522 14.6431L113.41 16.0125C113.675 16.0868 113.83 16.3619 113.755 16.627C113.681 16.8921 113.406 17.0468 113.141 16.9725L108.253 15.6031C107.988 15.5288 107.833 15.2537 107.908 14.9886ZM120.254 8.04664C120.519 8.12092 120.674 8.39604 120.6 8.66114L119.23 13.5487C119.156 13.8138 118.881 13.9685 118.616 13.8942C118.351 13.8199 118.196 13.5448 118.27 13.2797L119.64 8.39215C119.714 8.12706 119.989 7.97237 120.254 8.04664Z" fill="#1A1A1A"></path></svg>